<mxfile host="65bd71144e">
    <diagram id="fT0eTw1M2jGzekX_HIp5" name="Page-1">
        <mxGraphModel dx="1086" dy="658" grid="1" gridSize="10" guides="1" tooltips="1" connect="1" arrows="1" fold="1" page="1" pageScale="1" pageWidth="827" pageHeight="1169" math="0" shadow="0">
            <root>
                <mxCell id="0"/>
                <mxCell id="1" parent="0"/>
                <mxCell id="2" value="" style="pointerEvents=1;verticalLabelPosition=bottom;shadow=0;dashed=0;align=center;html=1;verticalAlign=top;shape=mxgraph.electrical.miscellaneous.batteryStack;rotation=-90;" vertex="1" parent="1">
                    <mxGeometry x="600" y="330" width="100" height="60" as="geometry"/>
                </mxCell>
                <mxCell id="3" value="+" style="text;html=1;align=center;verticalAlign=middle;resizable=0;points=[];autosize=1;strokeColor=none;fillColor=none;" vertex="1" parent="1">
                    <mxGeometry x="685" y="298" width="30" height="30" as="geometry"/>
                </mxCell>
                <mxCell id="4" value="-" style="text;html=1;align=center;verticalAlign=middle;resizable=0;points=[];autosize=1;strokeColor=none;fillColor=none;" vertex="1" parent="1">
                    <mxGeometry x="685" y="388" width="30" height="30" as="geometry"/>
                </mxCell>
                <mxCell id="5" value="5 V" style="text;html=1;align=center;verticalAlign=middle;resizable=0;points=[];autosize=1;strokeColor=none;fillColor=none;" vertex="1" parent="1">
                    <mxGeometry x="700" y="345" width="40" height="30" as="geometry"/>
                </mxCell>
                <mxCell id="6" value="" style="pointerEvents=1;verticalLabelPosition=bottom;shadow=0;dashed=0;align=center;html=1;verticalAlign=top;shape=mxgraph.electrical.resistors.resistor_1;rotation=90;" vertex="1" parent="1">
                    <mxGeometry x="300" y="358" width="100" height="20" as="geometry"/>
                </mxCell>
                <mxCell id="7" value="" style="verticalLabelPosition=bottom;shadow=0;dashed=0;align=center;html=1;verticalAlign=top;shape=mxgraph.electrical.opto_electronics.led_2;pointerEvents=1;rotation=-180;" vertex="1" parent="1">
                    <mxGeometry x="440" y="228" width="100" height="70" as="geometry"/>
                </mxCell>
                <mxCell id="8" value="output&amp;nbsp; A" style="text;html=1;align=center;verticalAlign=middle;resizable=0;points=[];autosize=1;strokeColor=none;fillColor=none;" vertex="1" parent="1">
                    <mxGeometry x="450" y="188" width="70" height="30" as="geometry"/>
                </mxCell>
                <mxCell id="9" style="edgeStyle=orthogonalEdgeStyle;html=1;entryX=0;entryY=0.57;entryDx=0;entryDy=0;entryPerimeter=0;endArrow=none;endFill=0;rounded=0;curved=0;exitX=1;exitY=0.5;exitDx=0;exitDy=0;" edge="1" parent="1" source="2" target="7">
                    <mxGeometry relative="1" as="geometry"/>
                </mxCell>
                <mxCell id="10" style="edgeStyle=orthogonalEdgeStyle;html=1;exitX=0;exitY=0.5;exitDx=0;exitDy=0;entryX=1;entryY=0.5;entryDx=0;entryDy=0;entryPerimeter=0;endArrow=none;endFill=0;rounded=0;" edge="1" parent="1" source="2" target="6">
                    <mxGeometry relative="1" as="geometry"/>
                </mxCell>
                <mxCell id="11" style="edgeStyle=orthogonalEdgeStyle;html=1;exitX=1;exitY=0.57;exitDx=0;exitDy=0;exitPerimeter=0;entryX=0;entryY=0.5;entryDx=0;entryDy=0;entryPerimeter=0;endArrow=none;endFill=0;rounded=0;" edge="1" parent="1" source="7" target="6">
                    <mxGeometry relative="1" as="geometry"/>
                </mxCell>
                <mxCell id="12" value="220 Î©" style="text;html=1;align=center;verticalAlign=middle;resizable=0;points=[];autosize=1;strokeColor=none;fillColor=none;" vertex="1" parent="1">
                    <mxGeometry x="270" y="348" width="60" height="30" as="geometry"/>
                </mxCell>
                <mxCell id="13" value="created by: Sophie N&lt;div&gt;date: Apr 3&lt;/div&gt;&lt;div&gt;4-03 schematic diagram&lt;/div&gt;" style="text;html=1;align=center;verticalAlign=middle;resizable=0;points=[];autosize=1;strokeColor=none;fillColor=none;" vertex="1" parent="1">
                    <mxGeometry x="200" y="168" width="150" height="60" as="geometry"/>
                </mxCell>
            </root>
        </mxGraphModel>
    </diagram>
</mxfile>